<mxfile host="Electron" agent="Mozilla/5.0 (Macintosh; Intel Mac OS X 10_15_7) AppleWebKit/537.36 (KHTML, like Gecko) draw.io/25.0.2 Chrome/128.0.6613.186 Electron/32.2.5 Safari/537.36" version="25.0.2">
  <diagram name="ページ1" id="6hTqSYI-dUD7XKkNih1l">
    <mxGraphModel dx="733" dy="551" grid="1" gridSize="10" guides="1" tooltips="1" connect="1" arrows="1" fold="1" page="1" pageScale="1" pageWidth="827" pageHeight="1169" background="#ffffff" math="0" shadow="0">
      <root>
        <mxCell id="0" />
        <mxCell id="1" parent="0" />
        <mxCell id="sBQnFZL3hHcIItLNBgsR-1" value="" style="verticalLabelPosition=bottom;shadow=0;dashed=0;align=center;html=1;verticalAlign=top;shape=mxgraph.electrical.logic_gates.inverter_2;gradientColor=none;fillColor=none;strokeColor=#000000;" vertex="1" parent="1">
          <mxGeometry x="110" y="280" width="100" height="60" as="geometry" />
        </mxCell>
        <mxCell id="sBQnFZL3hHcIItLNBgsR-3" value="" style="verticalLabelPosition=bottom;shadow=0;dashed=0;align=center;html=1;verticalAlign=top;shape=mxgraph.electrical.logic_gates.inverter_2;gradientColor=none;fillColor=none;strokeColor=#000000;" vertex="1" parent="1">
          <mxGeometry x="210" y="280" width="100" height="60" as="geometry" />
        </mxCell>
        <mxCell id="sBQnFZL3hHcIItLNBgsR-4" value="" style="verticalLabelPosition=bottom;shadow=0;dashed=0;align=center;html=1;verticalAlign=top;shape=mxgraph.electrical.logic_gates.inverter_2;gradientColor=none;fillColor=none;strokeColor=#000000;fontStyle=1" vertex="1" parent="1">
          <mxGeometry x="300" y="280" width="100" height="60" as="geometry" />
        </mxCell>
        <mxCell id="sBQnFZL3hHcIItLNBgsR-5" value="" style="verticalLabelPosition=bottom;shadow=0;dashed=0;align=center;html=1;verticalAlign=top;shape=mxgraph.electrical.logic_gates.inverter_2;gradientColor=none;fillColor=none;strokeColor=#000000;fontStyle=1" vertex="1" parent="1">
          <mxGeometry x="510" y="280" width="100" height="60" as="geometry" />
        </mxCell>
        <mxCell id="sBQnFZL3hHcIItLNBgsR-6" value="" style="endArrow=none;dashed=1;html=1;dashPattern=1 3;strokeWidth=2;rounded=0;entryX=0;entryY=0.5;entryDx=0;entryDy=0;entryPerimeter=0;exitX=1;exitY=0.5;exitDx=0;exitDy=0;exitPerimeter=0;strokeColor=#000000;" edge="1" parent="1" source="sBQnFZL3hHcIItLNBgsR-4" target="sBQnFZL3hHcIItLNBgsR-5">
          <mxGeometry width="50" height="50" relative="1" as="geometry">
            <mxPoint x="320" y="400" as="sourcePoint" />
            <mxPoint x="370" y="350" as="targetPoint" />
          </mxGeometry>
        </mxCell>
        <mxCell id="sBQnFZL3hHcIItLNBgsR-8" value="" style="endArrow=none;html=1;rounded=0;exitX=0;exitY=0.5;exitDx=0;exitDy=0;exitPerimeter=0;strokeColor=#000000;entryX=1;entryY=0.5;entryDx=0;entryDy=0;entryPerimeter=0;" edge="1" parent="1" source="sBQnFZL3hHcIItLNBgsR-1" target="sBQnFZL3hHcIItLNBgsR-5">
          <mxGeometry width="50" height="50" relative="1" as="geometry">
            <mxPoint x="320" y="400" as="sourcePoint" />
            <mxPoint x="110" y="440" as="targetPoint" />
            <Array as="points">
              <mxPoint x="110" y="420" />
              <mxPoint x="610" y="420" />
            </Array>
          </mxGeometry>
        </mxCell>
        <mxCell id="sBQnFZL3hHcIItLNBgsR-11" value="" style="shape=curlyBracket;whiteSpace=wrap;html=1;rounded=1;labelPosition=left;verticalLabelPosition=middle;align=right;verticalAlign=middle;strokeColor=#000000;rotation=90;size=0.5;" vertex="1" parent="1">
          <mxGeometry x="351.25" y="20" width="20" height="472.5" as="geometry" />
        </mxCell>
        <mxCell id="sBQnFZL3hHcIItLNBgsR-12" value="&lt;font style=&quot;font-size: 18px;&quot; color=&quot;#000000&quot;&gt;奇数個&lt;/font&gt;" style="text;html=1;align=center;verticalAlign=middle;resizable=0;points=[];autosize=1;strokeColor=none;fillColor=none;" vertex="1" parent="1">
          <mxGeometry x="321.25" y="210" width="80" height="40" as="geometry" />
        </mxCell>
      </root>
    </mxGraphModel>
  </diagram>
</mxfile>
